<?xml version="1.0" encoding="UTF-8"?>
<svg id="Layer_2" data-name="Layer 2" xmlns="http://www.w3.org/2000/svg" xmlns:xlink="http://www.w3.org/1999/xlink" viewBox="0 0 177.19 177.19">
  <defs>
    <style>
      .cls-1 {
        fill: url(#linear-gradient);
      }

      .cls-2 {
        fill: #fff;
      }
    </style>
    <linearGradient id="linear-gradient" x1="36.86" y1="8.23" x2="138.74" y2="166.48" gradientUnits="userSpaceOnUse">
      <stop offset=".05" stop-color="#8273ff"/>
      <stop offset=".13" stop-color="#7d5eff"/>
      <stop offset=".3" stop-color="#763cff"/>
      <stop offset=".47" stop-color="#7022ff"/>
      <stop offset=".64" stop-color="#6c0fff"/>
      <stop offset=".81" stop-color="#6903ff"/>
      <stop offset="1" stop-color="#6900ff"/>
    </linearGradient>
  </defs>
  <g id="Layer_1-2" data-name="Layer 1">
    <g>
      <rect class="cls-1" x="0" y="0" width="177.19" height="177.19" rx="88.6" ry="88.6"/>
      <g>
        <g>
          <path class="cls-2" d="M76.55,74.21l-2.85-6.46-7.02-.71c-.42-.04-.59-.57-.28-.85l5.26-4.7-1.49-6.9c-.09-.42,.36-.74,.72-.53l6.1,3.55,6.1-3.55c.37-.21,.81,.11,.72,.53l-1.49,6.9,5.26,4.7c.32,.28,.15,.81-.28,.85l-7.02,.71-2.85,6.46c-.17,.39-.72,.39-.9,0,0,0,.02,0,.02,0Z"/>
          <path class="cls-2" d="M96.37,73.54l-1.44-3.27-3.55-.36c-.43-.04-.61-.58-.28-.87l2.66-2.38-.76-3.49c-.09-.43,.37-.76,.74-.54l3.08,1.8,3.08-1.8c.38-.22,.83,.11,.74,.54l-.76,3.49,2.66,2.38c.33,.29,.15,.83-.28,.87l-3.55,.36-1.44,3.27c-.18,.4-.74,.4-.92,0h.02Z"/>
          <path class="cls-2" d="M132.18,99.79c-4.83,19.3-22.3,33.6-43.1,33.6-24.53,0-44.42-19.89-44.42-44.43,0-12.75,5.37-24.24,13.97-32.33-.87,3.46-1.33,7.08-1.33,10.82,0,24.54,19.89,44.43,44.43,44.43,11.79,0,22.5-4.59,30.45-12.09Z"/>
          <g>
            <path class="cls-2" d="M132.23,119.5c-7.83,12.02-20.68,20.51-34.87,22.95-7.12,1.3-14.6,1.39-21.61-.62-6.99-2.01-13.54-5.63-18.56-10.71-.14-.14,.04-.4,.22-.29,4.65,2.51,9.3,4.66,14.3,6.15,22.82,7.04,45.2,1.38,60.23-17.69,.06-.08,.18-.1,.26-.03,.08,.06,.09,.17,.04,.25h-.01Z"/>
            <path class="cls-2" d="M89.08,36.09c17.64-.69,35.07,8.3,45.06,22.83,6.47,9.14,10.06,20.23,9.22,31.47-.45,6.59-2.23,13.2-5.48,18.91-.05,.09-.16,.12-.25,.07-.08-.04-.11-.13-.09-.21,1.17-4.17,1.98-8.36,2.35-12.56,.36-4.2,.29-8.41-.22-12.54-2.4-21.95-16.55-39.53-37.92-45.66-4.12-1.13-8.38-1.78-12.68-1.94-.1,0-.18-.09-.18-.19s.08-.17,.18-.18c0,0,.01,0,.01,0Z"/>
            <path class="cls-2" d="M36.21,88.96c-.68-11.52,2.87-23.17,9.46-32.63,4.27-6.54,10.63-11.64,17.91-14.44,1.23-.4,2.46-.8,3.7-1.11,.19-.05,.32,.22,.15,.34-4.01,2.96-7.94,5.92-11.55,9.33-2.61,2.53-5.25,5.07-7.61,7.84-3.89,4.76-6.84,10.24-8.85,16.04-1.64,4.67-2.54,9.62-2.85,14.63,0,.1-.09,.18-.19,.17-.09,0-.17-.08-.17-.17h0Z"/>
            <path class="cls-2" d="M44.19,45.25c9.5-10.55,22.64-17.61,36.72-19.69,7.06-1.1,14.4-1.25,21.39,.46,6.98,1.71,13.64,4.78,19.12,9.27,.16,.13,0,.4-.19,.31-4.86-1.99-9.64-3.75-14.7-4.94-23.03-5.69-44.43-1.58-62.07,14.84-.07,.07-.19,.07-.26,0s-.07-.18,0-.25h0Z"/>
            <path class="cls-2" d="M55.39,141.8c-13.58-7.98-23.72-21.21-28.15-36.35-3.2-10.85-3.53-21.91,.16-32.7,1.21-3.64,2.84-7.12,4.9-10.31,.06-.09,.17-.11,.26-.06,.07,.05,.1,.13,.08,.21-1.09,3.61-2.06,7.19-2.73,10.81-.67,3.62-1.13,7.25-1.27,10.89-.25,6.34-.06,12.81,1.26,19.03,2.43,11.71,8.63,22.57,17.11,31.03,2.67,2.61,5.55,4.97,8.59,7.14,.09,.06,.11,.18,.04,.26-.06,.08-.16,.09-.24,.05h-.01Z"/>
            <path class="cls-2" d="M141.92,55.28c23.73,34.39,5.51,86-36,95.18-5.54,1.27-11.26,1.69-16.84,1.15-.1,0-.18-.1-.17-.2,0-.09,.08-.16,.17-.17,11.09-1,21.7-4.39,30.88-10.12,24.42-14.74,36.08-42.86,28.26-70.48-1.52-5.3-3.75-10.42-6.61-15.17-.05-.09-.02-.2,.06-.25,.08-.05,.19-.03,.25,.05h0Z"/>
            <circle class="cls-2" cx="114.61" cy="84.11" r="7.91"/>
          </g>
          <path class="cls-2" d="M114.22,68.19l-2.61,4.95c-.15,.28,.06,.62,.37,.62h5.22c.32,0,.52-.34,.37-.62l-2.61-4.95c-.16-.3-.59-.3-.75,0h0Z"/>
          <path class="cls-2" d="M103.08,73.13l1.66,5.35c.09,.3,.48,.4,.7,.17l3.69-3.69c.22-.22,.13-.61-.17-.7l-5.35-1.66c-.32-.1-.63,.2-.53,.53Z"/>
          <path class="cls-2" d="M98.69,84.49l4.95,2.61c.28,.15,.62-.06,.62-.37v-5.22c0-.32-.34-.52-.62-.37l-4.95,2.61c-.3,.16-.3,.59,0,.75h0Z"/>
          <path class="cls-2" d="M103.63,95.63l5.35-1.66c.3-.09,.4-.48,.17-.7l-3.69-3.69c-.22-.22-.61-.13-.7,.17l-1.66,5.35c-.1,.32,.2,.63,.53,.53Z"/>
          <path class="cls-2" d="M115,100.02l2.61-4.95c.15-.28-.06-.62-.37-.62h-5.22c-.32,0-.52,.34-.37,.62l2.61,4.95c.16,.3,.59,.3,.75,0h0Z"/>
          <path class="cls-2" d="M126.13,95.09l-1.66-5.35c-.09-.3-.48-.4-.7-.17l-3.69,3.69c-.22,.22-.13,.61,.17,.7l5.35,1.66c.32,.1,.63-.2,.53-.53Z"/>
          <path class="cls-2" d="M130.52,83.72l-4.95-2.61c-.28-.15-.62,.06-.62,.37v5.22c0,.32,.34,.52,.62,.37l4.95-2.61c.3-.16,.3-.59,0-.75h0Z"/>
          <path class="cls-2" d="M125.59,72.58l-5.35,1.66c-.3,.09-.4,.48-.17,.7l3.69,3.69c.22,.22,.61,.13,.7-.17l1.66-5.35c.1-.32-.2-.63-.53-.53Z"/>
        </g>
        <path class="cls-2" d="M97.21,67.95c-.15,.6-.26,1.09-.32,1.47-.03,.18-.05,.32-.05,.41s.02,.17,.05,.25c-.04,0-.11,.02-.21,.04s-.2,.03-.3,.03c-.11,0-.19-.02-.23-.05s-.07-.09-.07-.18c0-.08,.02-.21,.06-.41,.11-.52,.23-1.04,.37-1.56s.34-1.15,.58-1.9c-.14,.12-.28,.23-.42,.34s-.33,.23-.57,.37c-.04,0-.1-.04-.18-.12-.09-.08-.14-.14-.15-.18,.42-.24,.9-.52,1.44-.85l.22-.14c.23-.02,.37-.04,.42-.04s.07,.03,.05,.08c-.3,1.03-.53,1.85-.68,2.44h-.01Z"/>
        <path class="cls-2" d="M78.65,65.82c0,.06-.02,.16-.07,.3s-.09,.23-.13,.28c-.27-.09-.78-.14-1.55-.14-.54,0-1.09,.03-1.67,.09l-.24,.02s-.1-.12-.14-.21-.06-.17-.06-.22c0-.07,.07-.17,.22-.3,.36-.33,.65-.61,.86-.83s.66-.71,1.36-1.48c.3-.32,.53-.63,.69-.9,.16-.28,.24-.56,.24-.85,0-.25-.07-.44-.2-.58s-.33-.21-.59-.21c-.56,0-1,.36-1.31,1.08-.1,0-.17-.05-.22-.11-.05-.06-.07-.15-.07-.27,0-.24,.08-.46,.24-.68,.16-.21,.38-.38,.67-.51,.28-.13,.59-.19,.93-.19,.48,0,.87,.13,1.15,.4,.28,.27,.42,.6,.42,1.01,0,.27-.06,.52-.18,.76-.12,.24-.27,.46-.44,.65s-.4,.42-.69,.68l-2.22,2.09c.39-.06,.74-.11,1.03-.14,.3-.03,.6-.05,.9-.05,.71,0,1.06,.1,1.06,.31h0Z"/>
      </g>
    </g>
  </g>
</svg>